<svg width="98" height="34" viewBox="0 0 98 34" fill="none" xmlns="http://www.w3.org/2000/svg">
<path d="M26.0181 11.4145L31.109 21.8979C31.5615 22.8045 32.8625 22.8045 33.315 21.8979L38.406 11.4145" stroke="white" stroke-width="3" stroke-linecap="round" stroke-linejoin="round"/>
<path d="M52.6391 22.8093V16.3447C52.6956 15.8347 52.13 13.5114 50.2633 12.3214C48.736 11.3581 47.2088 11.3581 46.6997 11.4147C46.3603 11.4147 44.2674 11.3581 42.6269 13.0014C41.0431 14.6447 41.0997 16.6281 41.0997 16.9681C41.0997 17.3081 40.93 19.5747 42.6835 21.3314C44.6633 23.3714 47.3785 22.9747 47.6047 22.9181" stroke="white" stroke-width="3" stroke-linecap="round" stroke-linejoin="round"/>
<path d="M79.2245 22.8093V16.3447C79.2811 15.8347 78.7154 13.5114 76.8488 12.3214C75.3215 11.3581 73.7942 11.3581 73.2851 11.4147C72.9457 11.4147 70.8528 11.3581 69.2124 13.0014C67.6286 14.6447 67.6851 16.6281 67.6851 16.9681C67.6851 17.3081 67.5154 19.5747 69.269 21.3314C71.2488 23.3714 73.9639 22.9747 74.1902 22.9181" stroke="white" stroke-width="3" stroke-linecap="round" stroke-linejoin="round"/>
<path d="M96.1943 22.8093V16.3447C96.2508 15.8347 95.6852 13.5114 93.8185 12.3214C92.2912 11.3581 90.7639 11.3581 90.2549 11.4147C89.9155 11.4147 87.8225 11.3581 86.1821 13.0014C84.5983 14.6447 84.6549 16.6281 84.6549 16.9681C84.6549 17.3081 84.4852 19.5747 86.2387 21.3314C88.2185 23.3714 90.9336 22.9747 91.1599 22.9181" stroke="white" stroke-width="3" stroke-linecap="round" stroke-linejoin="round"/>
<path d="M58.8613 9.20934V13.7381V19.4048C58.9745 19.7448 59.4836 21.0481 60.8411 21.8981C62.029 22.6348 63.2169 22.5781 63.6129 22.5215" stroke="white" stroke-width="3" stroke-linecap="round" stroke-linejoin="round"/>
<path d="M61.6896 13.7427H58.8613" stroke="white" stroke-width="3" stroke-linecap="round" stroke-linejoin="round"/>
<path d="M22.0932 22.2426V16.2881C22.1497 15.7781 21.5841 13.4548 19.7174 12.2648C18.1901 11.3014 16.6629 11.3014 16.1538 11.3581C15.8144 11.3581 13.7215 11.3014 12.0811 12.9448C10.4972 14.5881 10.5538 16.5714 10.5538 16.9114C10.5538 17.2514 10.3841 19.5181 12.1376 21.2748C14.1174 23.3148 16.8326 22.9181 17.0588 22.8614" stroke="white" stroke-width="3" stroke-linecap="round" stroke-linejoin="round"/>
<path d="M16.3584 14.9801C17.5768 14.9801 18.5645 15.9695 18.5645 17.1901C18.5645 18.4107 17.5768 19.4001 16.3584 19.4001C15.14 19.4001 14.1523 18.4107 14.1523 17.1901C14.1523 15.9695 15.14 14.9801 16.3584 14.9801Z" fill="white"/>
</svg>
